<svg width="140" height="45" viewBox="0 0 140 45" fill="none" xmlns="http://www.w3.org/2000/svg">
<path d="M34.5567 19.6644C27.5577 15.4183 16.013 15.0279 9.33163 17.0995C8.25866 17.4319 7.1241 16.8131 6.79899 15.7171C6.47388 14.6205 7.07894 13.4622 8.15261 13.129C15.8224 10.7504 28.5722 11.2099 36.6296 16.0961C37.5949 16.6812 37.9115 17.9545 37.3392 18.939C36.7668 19.9248 35.5194 20.2497 34.5567 19.6644ZM34.3274 25.9537C33.8366 26.7678 32.7948 27.0228 31.9991 26.5233C26.164 22.8591 17.2663 21.7976 10.363 23.9383C9.46775 24.2146 8.52219 23.699 8.25036 22.7861C7.98053 21.8716 8.48553 20.9074 9.37913 20.6293C17.2653 18.1847 27.0687 19.3687 33.7705 23.5762C34.5662 24.0768 34.8167 25.1417 34.3274 25.9537ZM31.6706 31.9937C31.2807 32.6472 30.4473 32.8522 29.81 32.4538C24.7111 29.2704 18.2935 28.5512 10.7355 30.315C10.0071 30.4856 9.28128 30.0191 9.11508 29.2753C8.94829 28.5313 9.40293 27.7899 10.133 27.6202C18.4039 25.6885 25.4987 26.5199 31.2218 30.0925C31.8599 30.4905 32.0608 31.3422 31.6706 31.9937ZM21.7129 8.01086e-05C9.72146 8.01086e-05 0 9.93085 0 22.1813C0 34.4328 9.72146 44.3633 21.7129 44.3633C33.7049 44.3633 43.4258 34.4328 43.4258 22.1813C43.4258 9.93085 33.7049 8.01086e-05 21.7129 8.01086e-05Z" fill="#1ED760"/>
<path d="M59.0732 20.4776C55.3243 19.5643 54.6567 18.9232 54.6567 17.5766C54.6567 16.3039 55.8296 15.4478 57.5736 15.4478C59.2641 15.4478 60.94 16.0981 62.6977 17.4368C62.7508 17.4773 62.8175 17.4934 62.8831 17.4829C62.9487 17.4728 63.0065 17.4362 63.0451 17.3806L64.8756 14.7446C64.9508 14.6362 64.9303 14.4863 64.829 14.4034C62.7374 12.6888 60.3821 11.8553 57.629 11.8553C53.5812 11.8553 50.7537 14.3366 50.7537 17.8876C50.7537 21.6953 53.1928 23.0434 57.4076 24.084C60.995 24.9282 61.6004 25.6353 61.6004 26.8998C61.6004 28.3007 60.3761 29.1716 58.4058 29.1716C56.2178 29.1716 54.4326 28.4186 52.4359 26.6521C52.3864 26.6087 52.3185 26.5886 52.2557 26.5922C52.1899 26.5978 52.1295 26.629 52.0875 26.6807L50.035 29.1761C49.9489 29.2797 49.9598 29.4343 50.0591 29.5238C52.3825 31.6426 55.2395 32.762 58.3229 32.762C62.6847 32.762 65.5033 30.327 65.5033 26.5586C65.5033 23.3737 63.6407 21.6124 59.0732 20.4776Z" fill="#1ED760"/>
<path d="M78.5383 24.746C78.5383 27.4354 76.9167 29.3119 74.5949 29.3119C72.2995 29.3119 70.568 27.3501 70.568 24.746C70.568 22.1424 72.2995 20.1802 74.5949 20.1802C76.8794 20.1802 78.5383 22.1 78.5383 24.746ZM75.3719 16.7004C73.4813 16.7004 71.9305 17.4611 70.6518 19.0199V17.2654C70.6518 17.1269 70.5418 17.014 70.4062 17.014H67.0496C66.914 17.014 66.8043 17.1269 66.8043 17.2654V36.7609C66.8043 36.8994 66.914 37.0122 67.0496 37.0122H70.4062C70.5418 37.0122 70.6518 36.8994 70.6518 36.7609V30.6073C71.9308 32.0736 73.4818 32.7898 75.3719 32.7898C78.8849 32.7898 82.4412 30.0271 82.4412 24.746C82.4412 19.4638 78.8849 16.7004 75.3719 16.7004Z" fill="#1ED760"/>
<path d="M91.5569 29.3401C89.1505 29.3401 87.3364 27.3649 87.3364 24.746C87.3364 22.1162 89.0878 20.2077 91.5014 20.2077C93.9234 20.2077 95.7497 22.1828 95.7497 24.8035C95.7497 27.433 93.9864 29.3401 91.5569 29.3401ZM91.5569 16.7004C87.0327 16.7004 83.4884 20.2594 83.4884 24.8035C83.4884 29.2982 87.0084 32.8198 91.5014 32.8198C96.0417 32.8198 99.5969 29.2729 99.5969 24.746C99.5969 20.2344 96.066 16.7004 91.5569 16.7004Z" fill="#1ED760"/>
<path d="M109.258 17.014H105.564V13.1558C105.564 13.0172 105.455 12.9047 105.319 12.9047H101.963C101.827 12.9047 101.717 13.0172 101.717 13.1558V17.014H100.103C99.9672 17.014 99.858 17.1268 99.858 17.2653V20.2125C99.858 20.351 99.9672 20.4637 100.103 20.4637H101.717V28.09C101.717 31.1719 103.218 32.7344 106.179 32.7344C107.383 32.7344 108.382 32.4804 109.324 31.935C109.4 31.8913 109.448 31.8071 109.448 31.7175V28.911C109.448 28.8242 109.404 28.7427 109.331 28.6972C109.258 28.6503 109.167 28.6479 109.092 28.6858C108.446 29.0181 107.821 29.1716 107.122 29.1716C106.045 29.1716 105.564 28.6722 105.564 27.5526V20.4637H109.258C109.394 20.4637 109.503 20.351 109.503 20.2125V17.2653C109.503 17.1268 109.394 17.014 109.258 17.014Z" fill="#1ED760"/>
<path d="M122.128 17.029V16.5551C122.128 15.1611 122.651 14.5394 123.825 14.5394C124.524 14.5394 125.087 14.6814 125.716 14.8959C125.794 14.9208 125.875 14.9084 125.938 14.861C126.002 14.8136 126.039 14.7375 126.039 14.657V11.7672C126.039 11.6568 125.969 11.559 125.865 11.5267C125.2 11.3246 124.349 11.1169 123.075 11.1169C119.975 11.1169 118.336 12.9006 118.336 16.2733V16.9991H116.723C116.588 16.9991 116.477 17.1116 116.477 17.2502V20.2125C116.477 20.3509 116.588 20.4637 116.723 20.4637H118.336V32.2268C118.336 32.3654 118.445 32.4779 118.581 32.4779H121.937C122.073 32.4779 122.183 32.3654 122.183 32.2268V20.4637H125.318L130.119 32.2237C129.574 33.4593 129.038 33.7052 128.306 33.7052C127.715 33.7052 127.092 33.5247 126.455 33.1688C126.395 33.135 126.324 33.1296 126.26 33.15C126.196 33.1732 126.142 33.2218 126.114 33.2856L124.977 35.8355C124.922 35.956 124.969 36.0975 125.082 36.16C126.27 36.8172 127.342 37.0977 128.667 37.0977C131.146 37.0977 132.516 35.9179 133.724 32.7447L139.548 17.3712C139.577 17.2939 139.568 17.2067 139.522 17.1379C139.476 17.07 139.401 17.029 139.32 17.029H135.825C135.721 17.029 135.627 17.0968 135.593 17.1972L132.013 27.6434L128.092 17.1903C128.056 17.0931 127.964 17.029 127.862 17.029H122.128Z" fill="#1ED760"/>
<path d="M114.667 17.014H111.31C111.174 17.014 111.064 17.1268 111.064 17.2653V32.2269C111.064 32.3655 111.174 32.478 111.31 32.478H114.667C114.802 32.478 114.913 32.3655 114.913 32.2269V17.2653C114.913 17.1268 114.802 17.014 114.667 17.014Z" fill="#1ED760"/>
<path d="M113.006 10.2016C111.676 10.2016 110.597 11.3016 110.597 12.6599C110.597 14.0193 111.676 15.1204 113.006 15.1204C114.335 15.1204 115.413 14.0193 115.413 12.6599C115.413 11.3016 114.335 10.2016 113.006 10.2016Z" fill="#1ED760"/>
</svg>
