<svg width="44" height="45" viewBox="0 0 44 45" fill="none" xmlns="http://www.w3.org/2000/svg">
<path d="M34.5567 19.6644C27.5577 15.4183 16.013 15.0279 9.33163 17.0995C8.25866 17.4319 7.1241 16.8131 6.79899 15.7171C6.47388 14.6205 7.07894 13.4622 8.15261 13.129C15.8224 10.7504 28.5722 11.2099 36.6296 16.0961C37.5949 16.6812 37.9115 17.9545 37.3392 18.939C36.7668 19.9248 35.5194 20.2497 34.5567 19.6644ZM34.3274 25.9537C33.8366 26.7678 32.7948 27.0228 31.9991 26.5233C26.164 22.8591 17.2663 21.7976 10.363 23.9383C9.46775 24.2146 8.52219 23.699 8.25036 22.7861C7.98053 21.8716 8.48553 20.9074 9.37913 20.6293C17.2653 18.1847 27.0687 19.3687 33.7705 23.5762C34.5662 24.0768 34.8167 25.1417 34.3274 25.9537ZM31.6706 31.9937C31.2807 32.6472 30.4473 32.8522 29.81 32.4538C24.7111 29.2704 18.2935 28.5512 10.7355 30.315C10.0071 30.4856 9.28128 30.0191 9.11508 29.2753C8.94829 28.5313 9.40293 27.7899 10.133 27.6202C18.4039 25.6885 25.4987 26.5199 31.2218 30.0925C31.8599 30.4905 32.0608 31.3422 31.6706 31.9937ZM21.7129 8.01086e-05C9.72146 8.01086e-05 0 9.93085 0 22.1813C0 34.4328 9.72146 44.3633 21.7129 44.3633C33.7049 44.3633 43.4258 34.4328 43.4258 22.1813C43.4258 9.93085 33.7049 8.01086e-05 21.7129 8.01086e-05Z" fill="#1ED760"/>
</svg>
